<?xml version="1.0" standalone="no"?>
<!DOCTYPE svg PUBLIC "-//W3C//DTD SVG 20010904//EN"
 "http://www.w3.org/TR/2001/REC-SVG-20010904/DTD/svg10.dtd">
<svg version="1.0" xmlns="http://www.w3.org/2000/svg"
 width="299.000000pt" height="299.000000pt" viewBox="0 0 299.000000 299.000000"
 preserveAspectRatio="xMidYMid meet">
<metadata>
Created by potrace 1.11, written by Peter Selinger 2001-2013
</metadata>
<g transform="translate(0.000000,299.000000) scale(0.100000,-0.100000)"
fill="#000000" stroke="none">
<path d="M1230 2611 c-1203 -604 -1230 -620 -1230 -690 0 -83 23 -105 284
-275 269 -175 186 -161 976 -161 673 0 764 3 840 30 72 25 218 106 512 282
283 169 352 220 364 267 15 61 -27 128 -105 167 -14 7 -37 21 -51 30 -14 9
-92 51 -175 94 -82 43 -172 90 -200 105 -27 15 -162 85 -300 155 -137 71 -275
141 -305 158 -48 25 -66 30 -140 31 l-85 1 -385 -194z m645 -148 c149 -75 480
-245 648 -334 l88 -46 -38 -23 c-127 -75 -392 -224 -473 -266 -92 -48 -98 -49
-189 -51 -102 -2 -171 17 -268 74 -51 29 -180 124 -228 168 -64 57 -112 78
-169 73 -58 -5 -68 -11 -173 -108 -76 -70 -206 -159 -279 -192 -71 -31 -154
-30 -222 5 -60 30 -172 113 -172 127 0 15 108 72 713 375 426 214 574 284 590
279 12 -4 90 -40 172 -81z"/>
<path d="M2749 1743 c-58 -31 -471 -263 -539 -303 -62 -38 -609 -354 -675
-390 -22 -12 -44 -26 -50 -30 -9 -7 -114 -65 -174 -96 -55 -29 -51 -32 -485
249 -609 393 -666 427 -719 427 -44 0 -98 -56 -101 -105 -5 -85 1 -92 166
-202 205 -135 429 -281 563 -366 253 -161 336 -213 353 -222 9 -5 34 -20 53
-32 30 -19 51 -23 122 -23 l86 0 448 256 c943 540 1124 646 1172 688 20 19 22
27 18 75 -8 76 -39 107 -111 110 -45 2 -65 -4 -127 -36z"/>
<path d="M2792 1350 c-34 -14 -263 -148 -827 -485 -589 -351 -667 -395 -703
-395 -32 0 -84 31 -422 256 -124 82 -229 151 -235 154 -11 6 -41 25 -242 156
-179 117 -194 125 -249 126 -105 2 -150 -125 -71 -200 29 -27 896 -608 1079
-723 69 -43 84 -49 133 -49 64 0 106 19 315 144 36 22 74 44 85 50 64 35 805
480 1035 621 179 109 259 165 276 190 21 32 14 97 -14 134 -16 22 -27 26 -78
28 -32 1 -70 -2 -82 -7z"/>
</g>
</svg>
